<?xml version="1.0" encoding="UTF-8" standalone="no"?>
<svg
   xmlns:dc="http://purl.org/dc/elements/1.1/"
   xmlns:cc="http://creativecommons.org/ns#"
   xmlns:rdf="http://www.w3.org/1999/02/22-rdf-syntax-ns#"
   xmlns:svg="http://www.w3.org/2000/svg"
   xmlns="http://www.w3.org/2000/svg"
   xmlns:sodipodi="http://sodipodi.sourceforge.net/DTD/sodipodi-0.dtd"
   xmlns:inkscape="http://www.inkscape.org/namespaces/inkscape"
   viewBox="0 0 1920 1080"
   height="1080"
   width="1920"
   xml:space="preserve"
   version="1.1"
   id="svg2"
   inkscape:version="0.91 r13725"
   sodipodi:docname="docsvision.svg"><sodipodi:namedview
     pagecolor="#ffffff"
     bordercolor="#666666"
     borderopacity="1"
     objecttolerance="10"
     gridtolerance="10"
     guidetolerance="10"
     inkscape:pageopacity="0"
     inkscape:pageshadow="2"
     inkscape:window-width="1855"
     inkscape:window-height="1056"
     id="namedview22"
     showgrid="false"
     inkscape:zoom="0.4306841"
     inkscape:cx="713.3618"
     inkscape:cy="382.89596"
     inkscape:window-x="65"
     inkscape:window-y="24"
     inkscape:window-maximized="1"
     inkscape:current-layer="svg2" /><metadata
     id="metadata8"><rdf:RDF><cc:Work
         rdf:about=""><dc:format>image/svg+xml</dc:format><dc:type
           rdf:resource="http://purl.org/dc/dcmitype/StillImage" /><dc:title></dc:title></cc:Work></rdf:RDF></metadata><defs
     id="defs6"><clipPath
       id="clipPath18"
       clipPathUnits="userSpaceOnUse"><path
         id="path20"
         d="m 0,0 5075.93,0 0,850 L 0,850 0,0 Z"
         inkscape:connector-curvature="0" /></clipPath></defs><g
     transform="matrix(3.3491412,0,0,-3.3491412,109.99969,682.3385)"
     id="g10"><g
       transform="scale(0.1,0.1)"
       id="g12"><g
         id="g14"><g
           clip-path="url(#clipPath18)"
           id="g16"><path
             id="path22"
             style="fill:#85ce26;fill-opacity:1;fill-rule:nonzero;stroke:none"
             d="m 853.926,702.91 0,-504.781 c 57.004,-0.813 88.769,-1.75 94.418,-1.75 90.646,0 161.636,24.242 212.186,71.934 50.48,48.605 75.66,112.14 75.66,190.722 0,73.856 -24.25,132.781 -73.79,178.485 -49.56,45.871 -119.69,68.195 -211.31,68.195 -31.774,0 -71.981,-2.805 -97.164,-2.805 z m -79.453,-579.57 0,654.418 11.132,0 c 14.114,0 40.219,0 79.5,0.937 40.231,0.875 69.204,1.868 87.903,1.868 261.732,0 367.352,-149.641 367.352,-321.528 0,-98.215 -32.71,-178.484 -98.17,-242.14 -64.52,-63.532 -157.02,-95.301 -276.702,-95.301 -14.043,0 -39.273,0 -76.64,0.871 -36.438,0.875 -64.469,0.875 -84.106,0.875 l -10.269,0"
             inkscape:connector-curvature="0" /><path
             id="path24"
             style="fill:#85ce26;fill-opacity:1;fill-rule:nonzero;stroke:none"
             d="m 1517.73,226.227 c 27.11,-28.098 62.61,-42.032 104.69,-42.032 85.04,0 144.91,60.739 144.91,149.629 0,43.785 -13.99,79.453 -41.17,107.43 -27.09,27.976 -61.66,42.086 -103.74,42.086 -42.08,0 -76.64,-14.11 -103.75,-42.086 -27.18,-27.219 -41.16,-63.645 -41.16,-107.43 0,-44.125 13.16,-79.57 40.22,-107.597 z m -119.61,107.597 c 0,63.539 20.51,115.883 61.61,156.922 42.1,42.145 96.3,62.539 162.69,62.539 66.4,0 120.54,-20.394 161.71,-62.539 42.08,-41.039 62.58,-93.383 62.58,-156.922 0,-63.648 -20.5,-115.992 -62.58,-158.078 -41.17,-41.156 -95.31,-61.726 -161.71,-61.726 -66.39,0 -120.59,20.57 -162.69,61.726 -41.1,42.086 -61.61,94.43 -61.61,158.078"
             inkscape:connector-curvature="0" /><path
             id="path26"
             style="fill:#85ce26;fill-opacity:1;fill-rule:nonzero;stroke:none"
             d="m 2313.26,184.195 c -34.62,-44.941 -95.35,-70.175 -161.68,-70.175 -67.32,0 -121.53,19.64 -163.62,59.859 -41.1,40.223 -61.62,93.559 -61.62,159.945 0,61.668 20.52,113.961 60.74,156.047 40.11,42.027 91.63,63.414 152.31,63.414 73.85,0 129,-18.597 165.48,-55.086 l -34.63,-58.867 c -31.7,29.031 -71.91,44.008 -120.53,44.008 -39.3,0 -72.92,-14.11 -101.9,-42.953 -28.07,-28.164 -42.08,-63.539 -42.08,-106.563 0,-45 14.01,-81.429 42.96,-108.531 29.03,-27.164 65.46,-41.098 108.48,-41.098 48.62,0 88.83,17.664 120.54,54.09 l 35.55,-54.09"
             inkscape:connector-curvature="0" /><path
             id="path28"
             style="fill:#85ce26;fill-opacity:1;fill-rule:nonzero;stroke:none"
             d="m 2396.51,434.672 c 0,71.988 57.94,118.613 143.04,118.613 62.62,0 110.29,-16.609 144.9,-49.484 l -35.54,-56.953 c -30.83,27.054 -65.46,41.156 -105.62,41.156 -41.17,0 -67.27,-23.43 -67.27,-52.406 0,-87.84 227.16,-47.676 227.16,-194.391 0,-42.082 -15.91,-73.852 -46.81,-95.309 -30.79,-21.566 -70.06,-31.878 -115.88,-31.878 -32.77,0 -63.54,6.515 -94.43,20.57 -29.92,14.105 -50.48,29.031 -60.75,44.941 l 42.1,53.278 c 12.12,-14.047 30.88,-27.164 54.2,-37.481 24.37,-10.082 46.69,-15.797 67.26,-15.797 42.11,0 74.78,21.508 74.78,57.946 0,84.117 -227.14,43.89 -227.14,197.195"
             inkscape:connector-curvature="0" /><path
             id="path30"
             style="fill:#85ce26;fill-opacity:1;fill-rule:nonzero;stroke:none"
             d="m 3185.53,544.078 -185.95,-424.414 -54.33,0 -195.28,424.414 87.86,0 101.9,-227.16 c 11.17,-25.18 23.36,-57 35.48,-93.496 10.32,34.508 22.5,66.277 34.63,95.422 l 96.3,225.234 79.39,0"
             inkscape:connector-curvature="0" /><path
             id="path32"
             style="fill:#85ce26;fill-opacity:1;fill-rule:nonzero;stroke:none"
             d="m 3278.13,123.34 0,420.738 74.8,0 0,-420.738 -74.8,0 z m 39.25,623.59 c 25.24,0 45.81,-18.711 45.81,-44.883 0,-29.906 -20.57,-48.676 -45.81,-48.676 -27.06,0 -48.51,18.77 -48.51,48.676 0,26.172 21.45,44.883 48.51,44.883"
             inkscape:connector-curvature="0" /><path
             id="path34"
             style="fill:#85ce26;fill-opacity:1;fill-rule:nonzero;stroke:none"
             d="m 3494.11,434.672 c 0,71.988 57.94,118.613 142.98,118.613 62.67,0 110.35,-16.609 144.92,-49.484 l -35.55,-56.953 c -30.85,27.054 -65.35,41.156 -105.58,41.156 -41.14,0 -67.32,-23.43 -67.32,-52.406 0,-87.84 227.15,-47.676 227.15,-194.391 0,-42.082 -15.85,-73.852 -46.75,-95.309 -30.83,-21.566 -70.06,-31.878 -115.87,-31.878 -32.71,0 -63.6,6.515 -94.37,20.57 -29.97,14.105 -50.55,29.031 -60.8,44.941 l 42.02,53.278 c 12.19,-14.047 30.84,-27.164 54.28,-37.481 24.32,-10.082 46.64,-15.797 67.26,-15.797 42.09,0 74.73,21.508 74.73,57.946 0,84.117 -227.1,43.89 -227.1,197.195"
             inkscape:connector-curvature="0" /><path
             id="path36"
             style="fill:#85ce26;fill-opacity:1;fill-rule:nonzero;stroke:none"
             d="m 3930.7,123.34 0,420.738 74.74,0 0,-420.738 -74.74,0 z m 39.24,623.59 c 25.23,0 45.88,-18.711 45.88,-44.883 0,-29.906 -20.65,-48.676 -45.88,-48.676 -27.11,0 -48.56,18.77 -48.56,48.676 0,26.172 21.45,44.883 48.56,44.883"
             inkscape:connector-curvature="0" /><path
             id="path38"
             style="fill:#85ce26;fill-opacity:1;fill-rule:nonzero;stroke:none"
             d="m 4252.35,226.227 c 27.1,-28.098 62.61,-42.032 104.69,-42.032 84.98,0 144.79,60.739 144.79,149.629 0,43.785 -13.98,79.453 -41.09,107.43 -27.12,27.976 -61.69,42.086 -103.7,42.086 -42.08,0 -76.71,-14.11 -103.77,-42.086 -27.15,-27.219 -41.14,-63.645 -41.14,-107.43 0,-44.125 13.06,-79.57 40.22,-107.597 z m -119.62,107.597 c 0,63.539 20.53,115.883 61.63,156.922 42.12,42.145 96.28,62.539 162.68,62.539 66.33,0 120.55,-20.394 161.69,-62.539 42.08,-41.039 62.6,-93.383 62.6,-156.922 0,-63.648 -20.52,-115.992 -62.6,-158.078 -41.14,-41.156 -95.36,-61.726 -161.69,-61.726 -66.4,0 -120.56,20.57 -162.68,61.726 -41.1,42.086 -61.63,94.43 -61.63,158.078"
             inkscape:connector-curvature="0" /><path
             id="path40"
             style="fill:#85ce26;fill-opacity:1;fill-rule:nonzero;stroke:none"
             d="m 4688.94,123.34 0,420.738 74.72,0 0,-51.406 c 30.9,33.633 85.18,58.863 137.46,58.863 116.88,0 174.81,-61.664 174.81,-185.176 l 0,-243.019 -74.79,0 0,229.137 c 0,85.867 -39.29,128.941 -118.69,128.941 -47.66,0 -86.95,-17.727 -118.79,-54.152 l 0,-303.926 -74.72,0"
             inkscape:connector-curvature="0" /><path
             id="path42"
             style="fill:#85ce26;fill-opacity:1;fill-rule:nonzero;stroke:none"
             d="m 426.07,603.184 0,-459.793 68.266,0 0,459.793 c 0,134.765 -108.125,244.644 -242.09,247.207 l -4.891,0 C 110.945,850.391 0,739.469 0,603.184 L 0,172.246 C 0,79.1563 74.0391,3.08594 166.156,0 l 5.953,0 c 94.946,0 172.243,77.2891 172.243,172.246 l -0.176,423.652 c 0,53.454 -44.004,97.051 -97.992,97.051 -53.036,0 -96.164,-43.597 -96.164,-97.051 l 0,-261.664 68.183,0 0,261.664 c 0,15.86 12.602,28.79 27.981,28.79 16.218,0 29.847,-13.286 29.847,-28.79 l 0,-423.882 c 0,-55.086 -43.133,-100.3207 -97.511,-103.5785 l 0,-0.1758 -6.411,-0.1211 c -57.242,0 -103.8199,46.7464 -103.8199,104.1054 l 0,430.938 c 0,96.468 76.8909,175.336 172.6519,178.769 l 0,0.129 6.414,0.117 c 98.625,0 178.715,-80.328 178.715,-179.015"
             inkscape:connector-curvature="0" /></g></g></g></g></svg>