<svg xmlns="http://www.w3.org/2000/svg" viewBox="0 0 566.88 205.04"><defs><style>.cls-1{fill:#fff;}</style></defs><title>Ресурс 1</title><g id="Слой_2" data-name="Слой 2"><g id="Layer_1" data-name="Layer 1"><polygon class="cls-1" points="58.42 65.41 58.42 61.08 54.67 58.91 50.92 61.08 50.92 65.41 54.67 67.58 58.42 65.41"/><polygon class="cls-1" points="58.42 85.05 58.42 80.72 54.67 78.55 50.92 80.72 50.92 85.05 54.67 87.22 58.42 85.05"/><polygon class="cls-1" points="58.42 104.69 58.42 100.36 54.67 98.19 50.92 100.36 50.92 104.69 54.67 106.85 58.42 104.69"/><polygon class="cls-1" points="58.42 124.33 58.42 119.99 54.67 117.83 50.92 119.99 50.92 124.33 54.67 126.49 58.42 124.33"/><polygon class="cls-1" points="58.42 143.96 58.42 139.63 54.67 137.47 50.92 139.63 50.92 143.96 54.67 146.13 58.42 143.96"/><polygon class="cls-1" points="62.96 166.22 62.96 156.65 54.67 151.86 46.38 156.65 46.38 166.22 54.67 171.01 62.96 166.22"/><polygon class="cls-1" points="62.96 185.86 62.96 176.29 54.67 171.5 46.38 176.29 46.38 185.86 54.67 190.65 62.96 185.86"/><polygon class="cls-1" points="41.52 35.96 41.52 31.63 37.77 29.46 34.02 31.63 34.02 35.96 37.77 38.12 41.52 35.96"/><polygon class="cls-1" points="41.52 55.59 41.52 51.26 37.77 49.1 34.02 51.26 34.02 55.59 37.77 57.76 41.52 55.59"/><polygon class="cls-1" points="41.52 75.23 41.52 70.9 37.77 68.74 34.02 70.9 34.02 75.23 37.77 77.4 41.52 75.23"/><polygon class="cls-1" points="41.52 94.87 41.52 90.54 37.77 88.37 34.02 90.54 34.02 94.87 37.77 97.04 41.52 94.87"/><polygon class="cls-1" points="41.52 114.51 41.52 110.18 37.77 108.01 34.02 110.18 34.02 114.51 37.77 116.67 41.52 114.51"/><polygon class="cls-1" points="41.52 134.15 41.52 129.81 37.77 127.65 34.02 129.81 34.02 134.15 37.77 136.31 41.52 134.15"/><polygon class="cls-1" points="41.52 153.78 41.52 149.45 37.77 147.29 34.02 149.45 34.02 153.78 37.77 155.95 41.52 153.78"/><polygon class="cls-1" points="41.52 173.42 41.52 169.09 37.77 166.93 34.02 169.09 34.02 173.42 37.77 175.59 41.52 173.42"/><polygon class="cls-1" points="24.51 45.77 24.51 41.44 20.76 39.28 17.01 41.44 17.01 45.77 20.76 47.94 24.51 45.77"/><polygon class="cls-1" points="24.51 65.41 24.51 61.08 20.76 58.91 17.01 61.08 17.01 65.41 20.76 67.58 24.51 65.41"/><polygon class="cls-1" points="24.51 85.05 24.51 80.72 20.76 78.55 17.01 80.72 17.01 85.05 20.76 87.22 24.51 85.05"/><polygon class="cls-1" points="24.51 104.69 24.51 100.36 20.76 98.19 17.01 100.36 17.01 104.69 20.76 106.85 24.51 104.69"/><polygon class="cls-1" points="24.51 124.33 24.51 119.99 20.76 117.83 17.01 119.99 17.01 124.33 20.76 126.49 24.51 124.33"/><polygon class="cls-1" points="24.51 143.96 24.51 139.63 20.76 137.47 17.01 139.63 17.01 143.96 20.76 146.13 24.51 143.96"/><polygon class="cls-1" points="24.51 163.6 24.51 159.27 20.76 157.1 17.01 159.27 17.01 163.6 20.76 165.77 24.51 163.6"/><polygon class="cls-1" points="7.5 55.59 7.5 51.26 3.75 49.1 0 51.26 0 55.59 3.75 57.76 7.5 55.59"/><polygon class="cls-1" points="7.5 75.23 7.5 70.9 3.75 68.74 0 70.9 0 75.23 3.75 77.4 7.5 75.23"/><polygon class="cls-1" points="7.5 94.87 7.5 90.54 3.75 88.37 0 90.54 0 94.87 3.75 97.04 7.5 94.87"/><polygon class="cls-1" points="7.5 114.51 7.5 110.18 3.75 108.01 0 110.18 0 114.51 3.75 116.67 7.5 114.51"/><polygon class="cls-1" points="7.5 134.15 7.5 129.81 3.75 127.65 0 129.81 0 134.15 3.75 136.31 7.5 134.15"/><polygon class="cls-1" points="7.5 153.78 7.5 149.45 3.75 147.29 0 149.45 0 153.78 3.75 155.95 7.5 153.78"/><polygon class="cls-1" points="75.55 75.23 75.55 70.9 71.8 68.74 68.05 70.9 68.05 75.23 71.8 77.4 75.55 75.23"/><polygon class="cls-1" points="75.55 94.87 75.55 90.54 71.8 88.37 68.05 90.54 68.05 94.87 71.8 97.04 75.55 94.87"/><polygon class="cls-1" points="75.55 114.51 75.55 110.18 71.8 108.01 68.05 110.18 68.05 114.51 71.8 116.67 75.55 114.51"/><polygon class="cls-1" points="75.55 134.15 75.55 129.81 71.8 127.65 68.05 129.81 68.05 134.15 71.8 136.31 75.55 134.15"/><polygon class="cls-1" points="80.09 156.41 80.09 146.83 71.8 142.04 63.51 146.83 63.51 156.41 71.8 161.19 80.09 156.41"/><polygon class="cls-1" points="80.09 176.04 80.09 166.47 71.8 161.68 63.51 166.47 63.51 176.04 71.8 180.83 80.09 176.04"/><polygon class="cls-1" points="80.09 195.68 80.09 186.11 71.8 181.32 63.51 186.11 63.51 195.68 71.8 200.47 80.09 195.68"/><polygon class="cls-1" points="92.55 6.5 92.55 2.17 88.8 0 85.05 2.17 85.05 6.5 88.8 8.66 92.55 6.5"/><polygon class="cls-1" points="92.63 85.09 92.63 80.67 88.8 78.47 84.97 80.67 84.97 85.09 88.8 87.3 92.63 85.09"/><polygon class="cls-1" points="92.55 104.69 92.55 100.36 88.8 98.19 85.05 100.36 85.05 104.69 88.8 106.85 92.55 104.69"/><polygon class="cls-1" points="92.63 124.37 92.63 119.95 88.8 117.74 84.97 119.95 84.97 124.37 88.8 126.58 92.63 124.37"/><polygon class="cls-1" points="97.09 146.58 97.09 137.01 88.8 132.22 80.51 137.01 80.51 146.58 88.8 151.37 97.09 146.58"/><polygon class="cls-1" points="97.09 166.22 97.09 156.65 88.8 151.86 80.51 156.65 80.51 166.22 88.8 171.01 97.09 166.22"/><polygon class="cls-1" points="97.09 185.86 97.09 176.29 88.8 171.5 80.51 176.29 80.51 185.86 88.8 190.65 97.09 185.86"/><polygon class="cls-1" points="92.55 202.88 92.55 198.54 88.8 196.38 85.05 198.54 85.05 202.88 88.8 205.04 92.55 202.88"/><polygon class="cls-1" points="119.19 104.69 119.19 100.36 122.94 98.19 126.69 100.36 126.69 104.69 122.94 106.85 119.19 104.69"/><polygon class="cls-1" points="114.65 126.95 114.65 117.37 122.94 112.58 131.23 117.37 131.23 126.95 122.94 131.73 114.65 126.95"/><polygon class="cls-1" points="114.65 146.58 114.65 137.01 122.94 132.22 131.23 137.01 131.23 146.58 122.94 151.37 114.65 146.58"/><polygon class="cls-1" points="114.65 166.22 114.65 156.65 122.94 151.86 131.23 156.65 131.23 166.22 122.94 171.01 114.65 166.22"/><polygon class="cls-1" points="114.65 185.86 114.65 176.29 122.94 171.5 131.23 176.29 131.23 185.86 122.94 190.65 114.65 185.86"/><polygon class="cls-1" points="136.01 94.92 136.01 90.5 139.83 88.29 143.66 90.5 143.66 94.92 139.83 97.12 136.01 94.92"/><polygon class="cls-1" points="136.01 114.55 136.01 110.14 139.83 107.92 143.66 110.14 143.66 114.55 139.83 116.76 136.01 114.55"/><polygon class="cls-1" points="131.54 136.77 131.54 127.19 139.84 122.41 148.12 127.19 148.12 136.77 139.84 141.56 131.54 136.77"/><polygon class="cls-1" points="131.54 156.41 131.54 146.83 139.84 142.04 148.12 146.83 148.12 156.41 139.84 161.19 131.54 156.41"/><polygon class="cls-1" points="131.54 176.04 131.54 166.47 139.84 161.68 148.12 166.47 148.12 176.04 139.84 180.83 131.54 176.04"/><polygon class="cls-1" points="153.09 104.69 153.09 100.36 156.84 98.19 160.59 100.36 160.59 104.69 156.84 106.85 153.09 104.69"/><polygon class="cls-1" points="148.55 126.95 148.55 117.37 156.84 112.58 165.14 117.37 165.14 126.95 156.84 131.73 148.55 126.95"/><polygon class="cls-1" points="148.55 146.58 148.55 137.01 156.84 132.22 165.14 137.01 165.14 146.58 156.84 151.37 148.55 146.58"/><polygon class="cls-1" points="148.55 166.22 148.55 156.65 156.84 151.86 165.14 156.65 165.14 166.22 156.84 171.01 148.55 166.22"/><polygon class="cls-1" points="170.03 94.92 170.03 90.5 173.85 88.29 177.68 90.5 177.68 94.92 173.85 97.12 170.03 94.92"/><polygon class="cls-1" points="170.03 114.55 170.03 110.14 173.85 107.92 177.68 110.14 177.68 114.55 173.85 116.76 170.03 114.55"/><polygon class="cls-1" points="165.56 136.77 165.56 127.19 173.85 122.41 182.15 127.19 182.15 136.77 173.85 141.56 165.56 136.77"/><polygon class="cls-1" points="170.1 153.78 170.1 149.45 173.85 147.29 177.61 149.45 177.61 153.78 173.85 155.95 170.1 153.78"/><polygon class="cls-1" points="170.1 55.35 170.1 51.02 173.85 48.85 177.61 51.02 177.61 55.35 173.85 57.51 170.1 55.35"/><polygon class="cls-1" points="62.96 28.76 62.96 19.18 54.67 14.4 46.38 19.18 46.38 28.76 54.67 33.54 62.96 28.76"/><polygon class="cls-1" points="62.96 48.4 62.96 38.82 54.67 34.03 46.38 38.82 46.38 48.4 54.67 53.18 62.96 48.4"/><polygon class="cls-1" points="80.09 18.94 80.09 9.37 71.8 4.58 63.51 9.37 63.51 18.94 71.8 23.73 80.09 18.94"/><polygon class="cls-1" points="80.09 38.58 80.09 29 71.8 24.22 63.51 29 63.51 38.58 71.8 43.37 80.09 38.58"/><polygon class="cls-1" points="80.09 58.22 80.09 48.64 71.8 43.85 63.51 48.64 63.51 58.22 71.8 63 80.09 58.22"/><polygon class="cls-1" points="97.09 28.76 97.09 19.18 88.8 14.4 80.51 19.18 80.51 28.76 88.8 33.54 97.09 28.76"/><polygon class="cls-1" points="97.09 48.4 97.09 38.82 88.8 34.03 80.51 38.82 80.51 48.4 88.8 53.18 97.09 48.4"/><polygon class="cls-1" points="97.09 68.03 97.09 58.46 88.8 53.67 80.51 58.46 80.51 68.03 88.8 72.82 97.09 68.03"/><polygon class="cls-1" points="114.65 28.76 114.65 19.18 122.94 14.4 131.23 19.18 131.23 28.76 122.94 33.54 114.65 28.76"/><polygon class="cls-1" points="114.65 48.4 114.65 38.82 122.94 34.03 131.23 38.82 131.23 48.4 122.94 53.18 114.65 48.4"/><polygon class="cls-1" points="114.65 68.03 114.65 58.46 122.94 53.67 131.23 58.46 131.23 68.03 122.94 72.82 114.65 68.03"/><polygon class="cls-1" points="114.65 87.67 114.65 78.1 122.94 73.31 131.23 78.1 131.23 87.67 122.94 92.46 114.65 87.67"/><polygon class="cls-1" points="131.54 38.58 131.54 29 139.84 24.22 148.12 29 148.12 38.58 139.84 43.37 131.54 38.58"/><polygon class="cls-1" points="131.54 58.22 131.54 48.64 139.84 43.85 148.12 48.64 148.12 58.22 139.84 63 131.54 58.22"/><polygon class="cls-1" points="131.54 77.86 131.54 68.28 139.84 63.49 148.12 68.28 148.12 77.86 139.84 82.64 131.54 77.86"/><polygon class="cls-1" points="148.55 48.4 148.55 38.82 156.84 34.03 165.14 38.82 165.14 48.4 156.84 53.18 148.55 48.4"/><polygon class="cls-1" points="148.55 68.03 148.55 58.46 156.84 53.67 165.14 58.46 165.14 68.03 156.84 72.82 148.55 68.03"/><polygon class="cls-1" points="148.55 87.67 148.55 78.1 156.84 73.31 165.14 78.1 165.14 87.67 156.84 92.46 148.55 87.67"/><polygon class="cls-1" points="165.56 77.86 165.56 68.28 173.85 63.49 182.15 68.28 182.15 77.86 173.85 82.64 165.56 77.86"/><polygon class="cls-1" points="97.51 18.94 97.51 9.37 105.8 4.58 114.1 9.37 114.1 18.94 105.8 23.73 97.51 18.94"/><polygon class="cls-1" points="97.51 38.58 97.51 29 105.8 24.22 114.1 29 114.1 38.58 105.8 43.37 97.51 38.58"/><polygon class="cls-1" points="97.51 58.22 97.51 48.64 105.8 43.85 114.1 48.64 114.1 58.22 105.8 63 97.51 58.22"/><polygon class="cls-1" points="97.51 77.86 97.51 68.28 105.8 63.49 114.1 68.28 114.1 77.86 105.8 82.64 97.51 77.86"/><polygon class="cls-1" points="101.98 94.92 101.98 90.5 105.8 88.29 109.63 90.5 109.63 94.92 105.8 97.12 101.98 94.92"/><polygon class="cls-1" points="101.98 114.55 101.98 110.14 105.8 107.92 109.63 110.14 109.63 114.55 105.8 116.76 101.98 114.55"/><polygon class="cls-1" points="97.51 136.77 97.51 127.19 105.8 122.41 114.1 127.19 114.1 136.77 105.8 141.56 97.51 136.77"/><polygon class="cls-1" points="97.51 156.41 97.51 146.83 105.8 142.04 114.1 146.83 114.1 156.41 105.8 161.19 97.51 156.41"/><polygon class="cls-1" points="97.51 176.04 97.51 166.47 105.8 161.68 114.1 166.47 114.1 176.04 105.8 180.83 97.51 176.04"/><polygon class="cls-1" points="97.51 195.68 97.51 186.11 105.8 181.32 114.1 186.11 114.1 195.68 105.8 200.47 97.51 195.68"/><path class="cls-1" d="M259.24,69.57h-1.91c-.66-4-1.72-6.47-3.18-7.62s-3.41-1.64-7.31-1.64h-2.3c-2.39,0-2.79.31-2.79,2.22V72.62h1.06c4.21,0,6-1.73,6.2-6.06h2.08V81.08H249c-.09-2.62-.53-4-1.68-5.18-.89-.93-2-1.2-4.7-1.2h-.88V86c0,.93,0,1.2.35,1.46a4.63,4.63,0,0,0,2.84.67h2.92c3.72,0,6.24-.84,7.61-2.61,1.07-1.29,2.08-4,2.66-7.13h1.95l-.89,11.82H232V88.12h.79c3.59,0,4-.22,4-2.08V62.39c0-1.86-.4-2.08-4-2.08H232V58.23h26.61Z"/><path class="cls-1" d="M276.68,74.57a6.44,6.44,0,0,0,.4-1.86c0-1-.84-1.55-2.39-1.55h-.62V69.57h8.86v1.59h-.18c-1.68,0-2.92,1.24-4.12,4.16l-6.28,15.54H270.8l-7.62-17.8c-.62-1.5-1.24-1.9-2.92-1.9h-.36V69.57h10.45v1.59h-.62c-1.81,0-2.39.26-2.39,1a2.47,2.47,0,0,0,.22.93l5.05,11.73Z"/><path class="cls-1" d="M299.93,79.88c0,6.11-4.25,11-9.57,11S280.8,86,280.8,79.93s4.25-11,9.65-11c5.23,0,9.48,4.92,9.48,11m-14.48.05c0,5.84,1.73,9,4.91,9s4.92-3.19,4.92-9.08-1.73-9.07-4.83-9.07c-3.32,0-5,3.1-5,9.12"/><path class="cls-1" d="M306.28,84.75v1.77c0,1.77.49,2.08,3.37,2.08H310v1.6H298.49V88.6h.31c2.83,0,3.32-.31,3.32-2.08V62.17c0-1.9-.27-2.21-1.86-2.21h-2.17v-1.9l8.19-.49Z"/><path class="cls-1" d="M324.93,86.83c-1.95,2.84-4,4-6.91,4a6.84,6.84,0,0,1-6-2.83c-.67-1-.84-2-.84-4.3V74.17c0-1.9-.27-2.21-1.91-2.21h-1.68V70.05l7.75-.48v13.5c0,2.44.09,2.88.66,3.72a3.6,3.6,0,0,0,3.1,1.37,5.24,5.24,0,0,0,4.87-3.1,12.21,12.21,0,0,0,.93-5.44V74.17c0-1.9-.27-2.21-1.91-2.21h-2.25V70.05l8.32-.48V85.06c0,2.84.36,3.23,2.79,3.23H333V90.2l-8.06.31Z"/><path class="cls-1" d="M344.59,69.57v1.9h-6.51V83.56a9.6,9.6,0,0,0,.4,3.32,2.36,2.36,0,0,0,2.22,1.28c2.16,0,3.32-2,3.45-6H346c0,.44,0,.75,0,1a8.78,8.78,0,0,1-2.3,6.2,6.08,6.08,0,0,1-4.25,1.5c-2.57,0-4.34-1-5.05-2.88-.44-1-.53-2.12-.53-5.22V71.47h-3.63V69.74c3.59-.26,5.54-3.18,6-8.94h1.81v8.77Z"/><path class="cls-1" d="M352.92,84.75v1.77c0,1.77.49,2.08,3.37,2.08h.31v1.6H345.13V88.6h.31c2.83,0,3.32-.31,3.32-2.08V73.69c0-1.9-.26-2.21-1.9-2.21h-2.35V69.57l8.41-.23Zm.49-23.64a2.57,2.57,0,1,1-2.57-2.57,2.58,2.58,0,0,1,2.57,2.57"/><path class="cls-1" d="M374.33,79.88c0,6.11-4.25,11-9.57,11S355.2,86,355.2,79.93s4.25-11,9.65-11c5.23,0,9.48,4.92,9.48,11m-14.48.05c0,5.84,1.73,9,4.91,9s4.92-3.19,4.92-9.08-1.73-9.07-4.83-9.07c-3.32,0-5,3.1-5,9.12"/><path class="cls-1" d="M380.92,73.15c1.95-2.92,4.17-4.25,7-4.25a6.59,6.59,0,0,1,6,3.41c.79,1.51.93,2.3.93,5.49v8.72c0,1.77.48,2.08,3.32,2.08h.18v1.6H387.12V88.6h.18c2.88,0,3.36-.31,3.36-2.08V77.58a7.58,7.58,0,0,0-1-4.43,4.25,4.25,0,0,0-3.14-1.55A5.66,5.66,0,0,0,381.72,75a13.69,13.69,0,0,0-.8,5.18v6.37c0,1.77.49,2.08,3.37,2.08h.18v1.6H373.26V88.6h.18c2.83,0,3.32-.31,3.32-2.08V74.17c0-1.9-.27-2.21-1.9-2.21h-1.6V70.05l7.66-.48Z"/><path class="cls-1" d="M436.05,70.36h-1.91c-1.81-7.08-5.31-10.71-10.36-10.71-6.15,0-9.43,5.27-9.43,15.14,0,4.74.71,7.88,2.35,10.32a9,9,0,0,0,7.21,3.67c2.88,0,5.72-1.5,6.82-3.67a11.49,11.49,0,0,0,.89-4.74c0-2.44-.31-2.66-4-2.66h-.84V75.63h14.08v2.08h-.67c-2.39,0-3.32.18-3.72.62s-.26.36-.26,2.75v9.74h-1.86l-1.64-4c-2.88,2.88-5.49,4-9.21,4A14.85,14.85,0,0,1,412.4,86a16.27,16.27,0,0,1-3.89-11.16c0-6,2-10.45,6.42-14a13.38,13.38,0,0,1,9-3.23c3.23,0,5.18.75,8.06,3l1.72-2.7h1.69Z"/><path class="cls-1" d="M458.2,84.84c0,2.21.45,3.06,1.69,3.06a3.14,3.14,0,0,0,1.24-.31,1.55,1.55,0,0,1,.66-.18.5.5,0,0,1,.45.53c0,1.28-2.09,2.57-4.08,2.57s-3.19-.89-3.9-3.15a9.87,9.87,0,0,1-7.7,3.5c-3.9,0-6.42-2-6.42-5.18,0-2.79,1.86-4.87,5.67-6.29,2.17-.84,3.58-1.19,8.23-2V75.68c0-2-.31-3.06-1.15-3.77a5.94,5.94,0,0,0-3.63-1.1c-2.12,0-3.94.79-3.94,1.72,0,.13.05.27.31.58a3.2,3.2,0,0,1,.67,1.81,2.25,2.25,0,0,1-2.4,2.26,2.49,2.49,0,0,1-2.56-2.74c0-3.19,3.67-5.54,8.63-5.54a10.37,10.37,0,0,1,6.47,1.77c1.28,1.07,1.76,2.48,1.76,5.27ZM454,79.31A25.76,25.76,0,0,0,447.49,81c-1.95.93-2.88,2.25-2.88,4.11a3.4,3.4,0,0,0,3.5,3.46,6.4,6.4,0,0,0,5.05-2.75c.75-1.15.88-1.77.88-4.43Z"/><path class="cls-1" d="M469.41,73c1.73-2.79,3.72-4.08,6.38-4.08a6.15,6.15,0,0,1,6.11,4.43c1.9-3.06,4-4.43,6.9-4.43A6.47,6.47,0,0,1,494,71.42c1.15,1.51,1.42,2.44,1.42,5.19v9.87c0,1.81.48,2.12,3.32,2.12h.17v1.6h-11.2V88.6h.18c2.88,0,3.36-.31,3.36-2.08v-9a9,9,0,0,0-.53-3.67,3.43,3.43,0,0,0-3.23-2.22c-3.1,0-5.09,2.84-5.09,7.26v7.66c0,1.77.48,2.08,3.32,2.08h.18v1.6H474.72V88.6h.18c2.88,0,3.37-.31,3.37-2.08V77a6.68,6.68,0,0,0-.89-3.94,3.64,3.64,0,0,0-2.92-1.46c-2.88,0-5,2.92-5,6.87v8c0,1.81.49,2.12,3.32,2.12h.18v1.6H461.75V88.6h.18c2.83,0,3.32-.31,3.32-2.12V74.17c0-1.9-.27-2.21-1.9-2.21h-1.82V70.05l7.88-.49Z"/><path class="cls-1" d="M506.53,84.75v1.77c0,1.77.49,2.08,3.37,2.08h.31v1.6H498.74V88.6h.31c2.83,0,3.32-.31,3.32-2.08V74.17c0-1.9-.26-2.21-1.91-2.21h-2.25V70.05l8.32-.49ZM507,61.11a2.57,2.57,0,1,1-2.57-2.57A2.58,2.58,0,0,1,507,61.11"/><path class="cls-1" d="M517.61,73.15c1.95-2.92,4.16-4.25,7-4.25a6.58,6.58,0,0,1,6,3.41c.8,1.51.93,2.3.93,5.49v8.72c0,1.77.49,2.08,3.32,2.08H535v1.6h-11.2V88.6H524c2.88,0,3.37-.31,3.37-2.08V77.58a7.58,7.58,0,0,0-1-4.43,4.29,4.29,0,0,0-3.15-1.55A5.66,5.66,0,0,0,518.41,75a13.69,13.69,0,0,0-.8,5.18v6.37c0,1.77.49,2.08,3.36,2.08h.18v1.6H510V88.6h.18c2.83,0,3.32-.31,3.32-2.08V74.17c0-1.9-.27-2.21-1.91-2.21H510V70.05l7.66-.48Z"/><path class="cls-1" d="M546,86.92c3.05,0,4.47.18,5.62.62a4.75,4.75,0,0,1,2.66,4.65c0,4.65-3.72,7-11.12,7-5.93,0-9.34-1.64-9.34-4.56,0-1.82,1.33-3.24,4.07-4.21-2.08-.71-3-1.86-3-3.81,0-2.43,1.24-3.76,4.2-4.43a6.41,6.41,0,0,1-3.72-5.93c0-4.43,3.46-7.35,8.73-7.35a8.77,8.77,0,0,1,5.49,1.68c2-1.86,2.83-2.3,4.25-2.3a2.64,2.64,0,0,1,2.92,2.57,2,2,0,0,1-2,2.13,1.83,1.83,0,0,1-2-1.64c-.09-.49-.22-.62-.45-.62s-.75.26-1.5,1.06a5.89,5.89,0,0,1,1.64,4.34,6.76,6.76,0,0,1-4.17,6.42c-1.46.66-2.12.75-6.33.84-3,.09-4.16.66-4.16,2a1.35,1.35,0,0,0,.53,1.15c.53.31.67.36,3.1.4Zm-5.58,3.81c-2.13,1.11-2.92,2.08-2.92,3.54,0,2,2.12,3.1,5.84,3.1,5,0,7.84-1.46,7.84-4,0-1.42-1.11-2.4-2.88-2.57a36.17,36.17,0,0,0-4.61-.09Zm-1-14.43c0,3.32,1.72,5.4,4.47,5.4s4.51-2.08,4.51-5.54-1.55-5.36-4.34-5.36c-3,0-4.64,2-4.64,5.5"/><path class="cls-1" d="M271.63,113.15h-2.81c-1-5.88-2.55-9.53-4.7-11.23s-5-2.42-10.78-2.42H250c-3.53,0-4.12.46-4.12,3.27v14.89h1.57c6.2,0,8.82-2.55,9.14-9h3.07v21.41h-3.07c-.13-3.85-.78-5.94-2.48-7.63-1.31-1.38-2.94-1.77-6.92-1.77h-1.31v16.65c0,1.37.07,1.77.53,2.16.58.59,2.22,1,4.17,1h4.31c5.49,0,9.21-1.24,11.23-3.86,1.57-1.89,3.07-5.94,3.92-10.51h2.88l-1.31,17.44H231.47v-3.07h1.17c5.29,0,5.88-.33,5.88-3.07V102.57c0-2.74-.59-3.07-5.88-3.07h-1.17V96.43h39.24Z"/><path class="cls-1" d="M284.49,118.44c2.87-4.31,6.13-6.27,10.31-6.27a9.68,9.68,0,0,1,8.82,5c1.17,2.22,1.37,3.39,1.37,8.09v12.87c0,2.61.72,3.07,4.9,3.07h.26v2.35H293.63v-2.35h.26c4.24,0,5-.46,5-3.07V125c0-3.14-.45-5.16-1.44-6.53a6.23,6.23,0,0,0-4.63-2.29,8.37,8.37,0,0,0-7.12,5,20.32,20.32,0,0,0-1.17,7.65v9.4c0,2.61.71,3.07,5,3.07h.26v2.35H273.19v-2.35h.26c4.18,0,4.9-.46,4.9-3.07V119.94c0-2.81-.39-3.27-2.81-3.27h-2.35v-2.8l11.3-.72Z"/><path class="cls-1" d="M326.27,138.74c4.51,0,6.6.27,8.3.92,2.41,1,3.92,3.59,3.92,6.86,0,6.85-5.49,10.31-16.4,10.31-8.74,0-13.77-2.41-13.77-6.72,0-2.68,2-4.77,6-6.21-3.07-1-4.38-2.74-4.38-5.61,0-3.59,1.83-5.55,6.2-6.53a9.47,9.47,0,0,1-5.48-8.75c0-6.53,5.09-10.84,12.86-10.84a12.91,12.91,0,0,1,8.1,2.48c3-2.74,4.18-3.39,6.27-3.39,2.54,0,4.3,1.56,4.3,3.78a3,3,0,0,1-2.93,3.14,2.7,2.7,0,0,1-2.94-2.42c-.13-.72-.33-.91-.66-.91-.52,0-1.1.39-2.21,1.56a8.72,8.72,0,0,1,2.41,6.4,10,10,0,0,1-6.13,9.47c-2.16,1-3.14,1.11-9.34,1.24-4.38.13-6.14,1-6.14,2.94a2,2,0,0,0,.78,1.7c.79.45,1,.52,4.57.58Zm-8.22,5.62c-3.14,1.63-4.31,3.07-4.31,5.22,0,2.94,3.13,4.57,8.62,4.57,7.31,0,11.55-2.15,11.55-5.87,0-2.09-1.63-3.53-4.24-3.79-1-.13-1.37-.13-6.79-.13Zm-1.44-21.29c0,4.9,2.55,8,6.6,8s6.66-3.07,6.66-8.16-2.29-7.9-6.4-7.9c-4.38,0-6.86,2.94-6.86,8.09"/><path class="cls-1" d="M355.33,135.54v2.62c0,2.61.72,3.07,5,3.07h.46v2.35H343.84v-2.35h.46c4.17,0,4.89-.46,4.89-3.07V119.94c0-2.81-.39-3.27-2.81-3.27h-3.33v-2.8l12.28-.72Zm.72-32.62a3.79,3.79,0,1,1-3.79-3.78,3.81,3.81,0,0,1,3.79,3.78"/><path class="cls-1" d="M372.12,118.44c2.87-4.31,6.13-6.27,10.31-6.27a9.7,9.7,0,0,1,8.82,5c1.17,2.22,1.37,3.39,1.37,8.09v12.87c0,2.61.72,3.07,4.89,3.07h.26v2.35H381.26v-2.35h.26c4.24,0,5-.46,5-3.07V125c0-3.14-.46-5.16-1.44-6.53a6.23,6.23,0,0,0-4.63-2.29,8.37,8.37,0,0,0-7.12,5,20.32,20.32,0,0,0-1.17,7.65v9.4c0,2.61.71,3.07,5,3.07h.26v2.35H360.82v-2.35h.26c4.18,0,4.9-.46,4.9-3.07V119.94c0-2.81-.39-3.27-2.81-3.27h-2.35v-2.8l11.3-.72Z"/><path class="cls-1" d="M402.41,128.89c-.06,3.59.46,5.87,1.63,7.83a8.1,8.1,0,0,0,7.45,4.31c4.37,0,7.11-2,9.79-7l2.29,1.24c-2.68,6.21-7.12,9.28-13.32,9.28-8.82,0-14.76-6.21-14.76-15.35,0-9.79,6.27-17,14.62-17,8,0,13.52,6.92,13.46,16.72Zm11.49-2.81c2.09,0,2.68-.53,2.68-2.42,0-5.22-2.61-8.68-6.59-8.68-3.14,0-5.23,1.89-6.6,5.81a14.36,14.36,0,0,0-.91,5.29Z"/><path class="cls-1" d="M431.13,128.89c-.07,3.59.45,5.87,1.63,7.83A8.09,8.09,0,0,0,440.2,141c4.38,0,7.12-2,9.8-7l2.28,1.24c-2.68,6.21-7.11,9.28-13.32,9.28-8.81,0-14.75-6.21-14.75-15.35,0-9.79,6.27-17,14.62-17,8,0,13.52,6.92,13.45,16.72Zm11.49-2.81c2.09,0,2.68-.53,2.68-2.42,0-5.22-2.62-8.68-6.6-8.68-3.13,0-5.22,1.89-6.59,5.81a14.17,14.17,0,0,0-.92,5.29Z"/><path class="cls-1" d="M463.38,121.25c2.09-5.75,5.68-9.08,9.8-9.08,3.46,0,5.68,2.09,5.68,5.22,0,2.68-1.63,4.44-4,4.44a3.46,3.46,0,0,1-3.6-3.59,3.79,3.79,0,0,1,1.18-2.94c-2.75.33-5,2.35-6.53,6a35.27,35.27,0,0,0-2.55,13.58v3.27c0,2.61.72,3.07,4.9,3.07h1.24v2.35H452.09v-2.35h.26c4.24,0,5-.46,5-3.07V119.94c0-2.81-.39-3.26-2.81-3.26h-2.68v-2.81l11.56-.72Z"/><path class="cls-1" d="M492.37,135.54v2.62c0,2.61.72,3.07,5,3.07h.46v2.35H480.88v-2.35h.46c4.18,0,4.89-.46,4.89-3.07V119.94c0-2.81-.39-3.27-2.8-3.27H480.1v-2.8l12.27-.72Zm.72-32.62a3.79,3.79,0,1,1-3.79-3.78,3.81,3.81,0,0,1,3.79,3.78"/><path class="cls-1" d="M509.16,118.44c2.87-4.31,6.14-6.27,10.31-6.27a9.68,9.68,0,0,1,8.82,5c1.18,2.22,1.37,3.39,1.37,8.09v12.87c0,2.61.72,3.07,4.9,3.07h.26v2.35H518.3v-2.35h.26c4.24,0,5-.46,5-3.07V125c0-3.14-.45-5.16-1.43-6.53a6.26,6.26,0,0,0-4.64-2.29,8.38,8.38,0,0,0-7.12,5,20.52,20.52,0,0,0-1.17,7.65v9.4c0,2.61.72,3.07,5,3.07h.26v2.35H497.86v-2.35h.26c4.18,0,4.9-.46,4.9-3.07V119.94c0-2.81-.39-3.27-2.81-3.27h-2.35v-2.8l11.3-.72Z"/><path class="cls-1" d="M551,138.74c4.5,0,6.59.27,8.29.92,2.42,1,3.92,3.59,3.92,6.86,0,6.85-5.49,10.31-16.39,10.31-8.75,0-13.78-2.41-13.78-6.72,0-2.68,2-4.77,6-6.21-3.07-1-4.38-2.74-4.38-5.61,0-3.59,1.83-5.55,6.21-6.53a9.46,9.46,0,0,1-5.49-8.75c0-6.53,5.09-10.84,12.86-10.84a12.91,12.91,0,0,1,8.1,2.48c3-2.74,4.18-3.39,6.27-3.39,2.54,0,4.31,1.56,4.31,3.78a3,3,0,0,1-2.94,3.14,2.71,2.71,0,0,1-2.94-2.42c-.13-.72-.33-.91-.65-.91-.52,0-1.11.39-2.22,1.56a8.68,8.68,0,0,1,2.41,6.4,10,10,0,0,1-6.13,9.47c-2.16,1-3.14,1.11-9.34,1.24-4.38.13-6.14,1-6.14,2.94a2,2,0,0,0,.79,1.7c.78.45,1,.52,4.57.58Zm-8.23,5.62c-3.13,1.63-4.31,3.07-4.31,5.22,0,2.94,3.13,4.57,8.62,4.57,7.31,0,11.56-2.15,11.56-5.87,0-2.09-1.64-3.53-4.25-3.79-1-.13-1.37-.13-6.79-.13Zm-1.44-21.29c0,4.9,2.55,8,6.6,8s6.66-3.07,6.66-8.16-2.29-7.9-6.4-7.9c-4.38,0-6.86,2.94-6.86,8.09"/></g></g></svg>