<svg width="88" height="48" viewBox="0 0 88 48" version="1.1" xmlns="http://www.w3.org/2000/svg">
    <title>ISsoft logo</title>
    <path fill="#ffffff" d="M23.9 48C10.7 48 0 37.3 0 24 0 10.7 10.7 0 23.9 0 37.1 0 47.7 10.7 47.7 24 47.7 37.3 37.1 48 23.9 48ZM15 33.8L19.6 14.4 15.1 14.4 10.7 33.8 15 33.8ZM20.4 28.1C20.5 31.8 23.5 34 28.4 34 33.3 34 36.4 31.5 36.4 27.7 36.4 24.7 34.7 23 30.9 22.2L28.5 21.8C26.5 21.4 25.6 20.8 25.6 19.8 25.6 18.6 26.8 17.8 28.4 17.8 30.2 17.8 31.5 18.7 31.6 20.1L36 20.1C36 16.5 33.2 14.1 28.4 14.1 24 14.1 20.8 16.5 20.8 20.2 20.8 23.2 22.6 25.1 26.1 25.7L28.6 26.2C30.8 26.7 31.6 27.2 31.6 28.3 31.6 29.4 30.4 30.3 28.5 30.3 26.7 30.3 25.2 29.4 25 28.1L20.4 28.1Z"/>
    <path fill="#ffffff" d="M53.8 31.1L55.5 31.1C55.6 32 56.4 32.6 57.6 32.6 58.7 32.6 59.5 32 59.5 31.2 59.5 30.5 59 30.2 57.8 29.9L56.6 29.6C54.9 29.2 54.1 28.3 54.1 27 54.1 25.3 55.5 24.2 57.6 24.2 59.6 24.2 61 25.3 61 27L59.4 27C59.4 26.1 58.6 25.6 57.6 25.6 56.5 25.6 55.8 26.1 55.8 26.9 55.8 27.5 56.3 27.9 57.4 28.1L58.5 28.4C60.4 28.8 61.2 29.6 61.2 31 61.2 32.8 59.8 33.9 57.5 33.9 55.3 33.9 53.9 32.9 53.8 31.1ZM66.9 24.2C69.7 24.2 71.4 26.1 71.4 29.1 71.4 32.1 69.7 33.9 66.9 33.9 64.2 33.9 62.5 32.1 62.5 29.1 62.5 26.1 64.2 24.2 66.9 24.2ZM66.9 25.6C65.3 25.6 64.2 27 64.2 29.1 64.2 31.2 65.3 32.5 66.9 32.5 68.6 32.5 69.7 31.2 69.7 29.1 69.7 27 68.6 25.6 66.9 25.6ZM74.7 33.8L73.1 33.8 73.1 24.3 79.1 24.3 79.1 25.8 74.7 25.8 74.7 28.6 78.7 28.6 78.7 29.9 74.7 29.9 74.7 33.8ZM85 33.8L83.3 33.8 83.3 25.8 80.5 25.8 80.5 24.3 87.8 24.3 87.8 25.8 85 25.8 85 33.8Z"/>
</svg>
