<svg xmlns="http://www.w3.org/2000/svg" viewBox="0 0 1880 1000"><title>punchArtboard 5</title><rect x="576.63" y="-308.63" width="726.74" height="1617.26" transform="translate(1440 -440) rotate(90)" fill="none"/><path d="M1441.54,529.58l-3.83,28.3,22.51-17.38,9.61,15.92-29.15,10.79,28.69,12-9.14,15.88-23.42-18.15,5.3,28.87-18.61,0L1427,576l-22.57,18.21-9.3-16.27,26.88-9.5-26.84-10.76,9.36-16.27L1428.18,560l-5.3-30.43Z" fill="#ffc953"/><polygon points="1644.63 529.88 1553.87 529.88 1418.17 758.27 1509.26 758.27 1644.63 529.88" fill="#eb008b"/><path d="M548.47,240.63l-3.83,28.3,22.51-17.38,9.61,15.92-29.15,10.79,28.69,12-9.14,15.88L543.74,288l5.3,28.87-18.61,0L533.89,287l-22.57,18.21L502,288.94l26.88-9.49-26.84-10.76,9.36-16.28,23.69,18.66-5.3-30.43Z" fill="#ffcb4d"/><polygon points="461.83 240.93 371.07 240.93 235.37 469.31 326.46 469.31 461.83 240.93" fill="#00e2b5"/><path d="M577.63,396.43H598.3V406.9c5-6.8,12-11.83,22.71-11.83,17,0,33.18,13.33,33.18,37.94,0,24.34-15.91,37.67-33.18,37.67-11,0-17.82-5-22.71-10.88v31.28H577.63Zm55.89,36.31c0-12.1-8.16-20.13-17.81-20.13S598,420.64,598,433c0,12.11,8,20.13,17.68,20.13S633.52,445.25,633.52,432.74Z" fill="#242424"/><path d="M667.85,370.05h21.76v18.36H667.85Zm.54,26.38h20.67v72.89H668.39Z" fill="#242424"/><path d="M710,448.65V414.11h-8.7V396.43H710V377.8h20.67v18.63h17.14v17.68H730.62v31.14c0,4.76,2,7.07,6.67,7.07a21.09,21.09,0,0,0,10.2-2.58v16.59a30.55,30.55,0,0,1-16.32,4.21C718.52,470.54,710,465.51,710,448.65Z" fill="#242424"/><path d="M756.89,433c0-20.8,14.82-37.94,36-37.94,24.35,0,35.5,18.9,35.5,39.57,0,1.64-.14,3.54-.28,5.44H777.42c2,9.39,8.57,14.28,17.81,14.28,6.94,0,12-2.17,17.68-7.48l11.83,10.47c-6.8,8.44-16.59,13.6-29.78,13.6C773.07,471,756.89,455.59,756.89,433Zm51.4-5.85c-1.22-9.24-6.66-15.5-15.37-15.5-8.56,0-14.14,6.12-15.77,15.5Z" fill="#242424"/><path d="M841.94,396.43h20.67v14.69c4.22-10.07,11-16.59,23.25-16.05v21.62h-1.08c-13.74,0-22.17,8.3-22.17,25.7v26.93H841.94Z" fill="#242424"/><path d="M891.38,432.87c0-20.8,15.91-37.93,38.21-37.93,13.73,0,22.17,5.16,29,12.78L946.45,420c-4.49-4.22-8.84-7.21-17-7.21-10.33,0-17.67,9.11-17.67,20.12S919,453,930.27,453c6.93,0,11.69-3,16.73-7.75l12.1,12.24c-7.07,7.75-15.23,13.33-29.78,13.33C907.42,470.82,891.38,454,891.38,432.87Z" fill="#242424"/><path d="M967.66,459.67l8.84-13.6c7.88,5.71,16.18,8.7,23,8.7,6,0,8.7-2.18,8.7-5.71,0-4.49-7.07-6-15.09-8.43-10.2-3-21.76-7.76-21.76-22.17,0-14.82,12-23.12,26.65-23.12a50.41,50.41,0,0,1,27.2,8.44l-7.89,14.27c-7.2-4.21-14.41-6.8-19.71-6.8-5,0-7.62,2.18-7.62,5.31,0,4.08,6.94,6,14.82,8.7,10.2,3.4,22,8.3,22,21.89,0,16.19-12.1,23.53-27.87,23.53A51.08,51.08,0,0,1,967.66,459.67Z" fill="#242424"/><path d="M1034,459.67l8.84-13.6c7.89,5.71,16.19,8.7,23,8.7,6,0,8.71-2.18,8.71-5.71,0-4.49-7.07-6-15.1-8.43-10.2-3-21.76-7.76-21.76-22.17,0-14.82,12-23.12,26.66-23.12a50.41,50.41,0,0,1,27.2,8.44l-7.89,14.27c-7.21-4.21-14.42-6.8-19.72-6.8-5,0-7.62,2.18-7.62,5.31,0,4.08,6.94,6,14.83,8.7,10.2,3.4,22,8.3,22,21.89,0,16.19-12.11,23.53-27.88,23.53A51.1,51.1,0,0,1,1034,459.67Z" fill="#242424"/><path d="M574.09,567.62c0-20.81,15.91-37.94,38.22-37.94,13.73,0,22.16,5.17,29,12.78l-12.1,12.24c-4.49-4.22-8.84-7.21-17-7.21-10.33,0-17.68,9.12-17.68,20.13s7.21,20.13,18.5,20.13c6.93,0,11.69-3,16.72-7.76l12.11,12.24c-7.08,7.75-15.23,13.33-29.79,13.33C590.14,605.56,574.09,588.7,574.09,567.62Z" fill="#242424"/><path d="M647.25,567.62c0-20.94,16.86-37.94,39.57-37.94s39.3,16.73,39.3,37.94c0,20.94-16.86,37.94-39.57,37.94S647.25,588.83,647.25,567.62Zm58.47,0c0-10.74-7.75-20.13-19.17-20.13-11.83,0-18.9,9.12-18.9,20.13,0,10.74,7.75,20.13,19.17,20.13C698.65,587.75,705.72,578.64,705.72,567.62Z" fill="#242424"/><path d="M738.19,531h20.67v10.34c4.76-6.13,10.88-11.7,21.35-11.7,15.64,0,24.75,10.33,24.75,27.06v47.19H784.29V563.27c0-9.79-4.62-14.82-12.51-14.82s-12.92,5-12.92,14.82v40.66H738.19Z" fill="#242424"/><path d="M824.69,548.72h-8.57v-17h8.57V527.1c0-8,2-13.88,5.84-17.68s9.39-5.71,16.73-5.71a45.64,45.64,0,0,1,14.69,2v17.13a26.19,26.19,0,0,0-9.39-1.77c-4.76,0-7.48,2.45-7.48,7.89v2.86h16.73v16.86H845.36v55.21H824.69Z" fill="#242424"/><path d="M867.35,567.62c0-20.81,14.82-37.94,36-37.94,24.34,0,35.5,18.9,35.5,39.57,0,1.63-.14,3.54-.28,5.44H887.88c2,9.38,8.57,14.28,17.82,14.28,6.93,0,12-2.18,17.67-7.48L935.2,592c-6.8,8.43-16.59,13.6-29.78,13.6C883.53,605.56,867.35,590.19,867.35,567.62Zm51.4-5.85c-1.22-9.24-6.66-15.5-15.37-15.5-8.56,0-14.14,6.12-15.77,15.5Z" fill="#242424"/><path d="M952.4,531h20.67v14.69c4.22-10.07,11-16.6,23.25-16.05V551.3h-1.09c-13.73,0-22.16,8.3-22.16,25.7v26.93H952.4Z" fill="#242424"/><path d="M1003.15,567.62c0-20.81,14.83-37.94,36-37.94,24.34,0,35.49,18.9,35.49,39.57,0,1.63-.13,3.54-.27,5.44h-50.72c2,9.38,8.57,14.28,17.81,14.28,6.94,0,12-2.18,17.68-7.48L1071,592c-6.8,8.43-16.59,13.6-29.78,13.6C1019.34,605.56,1003.15,590.19,1003.15,567.62Zm51.41-5.85c-1.23-9.24-6.67-15.5-15.37-15.5s-14.14,6.12-15.77,15.5Z" fill="#242424"/><path d="M1088.21,531h20.67v10.34c4.76-6.13,10.88-11.7,21.35-11.7,15.64,0,24.75,10.33,24.75,27.06v47.19h-20.67V563.27c0-9.79-4.63-14.82-12.51-14.82s-12.92,5-12.92,14.82v40.66h-20.67Z" fill="#242424"/><path d="M1167.71,567.62c0-20.81,15.91-37.94,38.21-37.94,13.74,0,22.17,5.17,29,12.78l-12.1,12.24c-4.49-4.22-8.84-7.21-17-7.21-10.34,0-17.68,9.12-17.68,20.13s7.21,20.13,18.49,20.13c6.94,0,11.7-3,16.73-7.76l12.1,12.24c-7.07,7.75-15.23,13.33-29.78,13.33C1183.76,605.56,1167.71,588.7,1167.71,567.62Z" fill="#242424"/><path d="M1241.33,567.62c0-20.81,14.82-37.94,36-37.94,24.35,0,35.5,18.9,35.5,39.57,0,1.63-.14,3.54-.27,5.44h-50.73c2,9.38,8.57,14.28,17.82,14.28,6.93,0,12-2.18,17.68-7.48L1309.19,592c-6.8,8.43-16.6,13.6-29.78,13.6C1257.51,605.56,1241.33,590.19,1241.33,567.62Zm51.4-5.85c-1.22-9.24-6.66-15.5-15.37-15.5-8.56,0-14.14,6.12-15.77,15.5Z" fill="#242424"/><path d="M564.51,747.57l5.3-4.56c4,6,8.09,9.3,14.88,9.3,7.35,0,12.74-5.3,12.74-15.62V693.07h7.44v43.52c0,7.63-2.23,13.4-6,17.12-3.62,3.53-8.55,5.39-14.32,5.39C574.83,759.1,568.6,754.26,564.51,747.57Z" fill="#242424"/><path d="M620.31,739.94V710.09h7.16v28.09c0,8.92,4.84,14.5,13.3,14.5,8.19,0,14.42-6,14.42-15.06V710.09h7.06v48.08h-7.06V749.8c-3.26,5.21-8.19,9.39-16.46,9.39C627.1,759.19,620.31,751.38,620.31,739.94Z" fill="#242424"/><path d="M678.34,710.09h7.16v8.37c3.17-5.21,8.19-9.39,16.47-9.39,11.62,0,18.41,7.81,18.41,19.25v29.85h-7.16V730.08c0-8.92-4.84-14.5-13.3-14.5-8.28,0-14.42,6-14.42,15.06v27.53h-7.16Z" fill="#242424"/><path d="M756.83,753.06c6.61,0,11.26-2.7,15.16-6.79l4.47,4c-4.84,5.39-10.7,9-19.81,9-13.21,0-24-10.14-24-25.11,0-13.95,9.77-25.11,23.07-25.11,14.23,0,22.41,11.34,22.41,25.48,0,.65,0,1.39-.09,2.51H739.91C740.93,747.2,748.37,753.06,756.83,753.06Zm14-21.77c-.84-8.74-5.86-16.18-15.35-16.18-8.27,0-14.6,6.88-15.62,16.18Z" fill="#242424"/><path d="M815.42,740.5c0-7.72,5.58-13.21,13.4-16-6.05-2.79-11.16-7.44-11.16-15.16,0-10,10.32-17.2,22.22-17.2s22.23,7.16,22.23,17.39c0,7.53-5.11,12.18-11.16,15,7.72,2.89,13.39,8.19,13.39,16.09,0,11.07-10.6,18.51-24.46,18.51S815.42,751.57,815.42,740.5Zm41.48-.19c0-7.25-7.53-12.36-17-12.36s-17,5.11-17,12.55c0,6.6,6.33,12.18,17,12.18S856.9,747.1,856.9,740.31Zm-2.14-30.5c0-6.42-6.41-11.25-14.88-11.25S825,703.3,825,710c0,7.06,6.61,11.9,14.88,11.9S854.76,717.06,854.76,709.81Z" fill="#242424"/><path d="M875.22,726.64h37v7.16h-37Z" fill="#242424"/><path d="M925.63,751.29l4.28-5.67c5.3,4.65,10.23,7,16,7,11.53,0,19.35-11.53,19.35-27.71V724c-3.54,5.67-9.4,10.42-18.42,10.42-13.39,0-22.69-8.47-22.69-20.37,0-12.37,9.58-22.14,23.44-22.14,14.32,0,25.2,8.65,25.2,32.09,0,20.65-11,35.25-27.06,35.25C937.25,759.29,931.11,755.85,925.63,751.29Zm38.22-38c0-8.28-6.79-14.79-16.55-14.79s-15.63,7.16-15.63,15.44,6.51,14.23,16,14.23C957.62,728.13,963.85,720.88,963.85,713.25Z" fill="#242424"/><path d="M989,745.43v-29h-6.7v-6.32H989V695.58h7.16v14.51h15.25v6.32H996.12V744.5c0,5.86,3.25,8,8.09,8a15.07,15.07,0,0,0,7-1.68V757a18,18,0,0,1-8.65,2C994.82,759,989,755.2,989,745.43Z" fill="#242424"/><path d="M1024,690.28h7.16v28.18c3.16-5.21,8.18-9.39,16.46-9.39,11.63,0,18.42,7.81,18.42,19.25v29.85h-7.16V730.08c0-8.92-4.84-14.5-13.3-14.5-8.28,0-14.42,6-14.42,15.06v27.53H1024Z" fill="#242424"/><path d="M1077.59,766.26c4.27-1.58,6.23-3.72,6.23-7.16v-.93h-3.35v-9.76H1089v8.37c0,7.53-3.26,11.16-10.33,12.74Z" fill="#242424"/><path d="M1128.46,752.5l23.62-20.83c10-8.84,13.58-14,13.58-20.46,0-7.63-6.05-12.47-13.12-12.47-7.44,0-12.27,3.91-17.48,11.16l-5.39-3.9c5.85-8.75,12-13.86,23.43-13.86,11.72,0,20.18,7.81,20.18,18.6,0,9.49-5.11,15.25-16.46,25.3l-17.39,15.43h34.5v6.7h-45.47Z" fill="#242424"/><path d="M1185.46,725.62c0-18.23,10.89-33.67,27.63-33.67s27.34,15.26,27.34,33.67c0,18.23-10.79,33.67-27.53,33.67S1185.46,744,1185.46,725.62Zm47.34,0c0-14.23-7.81-27-19.9-27s-19.81,12.46-19.81,27c0,14.23,7.81,27,20,27S1232.8,740,1232.8,725.62Z" fill="#242424"/><path d="M1262.84,700.23,1250.56,704l-1.76-5.95,15.9-5.49h5.39v65.57h-7.25Z" fill="#242424"/><path d="M1284.32,740.5c0-7.72,5.58-13.21,13.39-16-6-2.79-11.16-7.44-11.16-15.16,0-10,10.33-17.2,22.23-17.2S1331,699.3,1331,709.53c0,7.53-5.12,12.18-11.16,15,7.72,2.89,13.39,8.19,13.39,16.09,0,11.07-10.6,18.51-24.46,18.51S1284.32,751.57,1284.32,740.5Zm41.48-.19c0-7.25-7.53-12.36-17-12.36s-17,5.11-17,12.55c0,6.6,6.33,12.18,17,12.18S1325.8,747.1,1325.8,740.31Zm-2.14-30.5c0-6.42-6.41-11.25-14.88-11.25S1293.9,703.3,1293.9,710c0,7.06,6.6,11.9,14.88,11.9S1323.66,717.06,1323.66,709.81Z" fill="#242424"/></svg>