<?xml version="1.0" encoding="UTF-8" standalone="no"?>
<svg
   xmlns:dc="http://purl.org/dc/elements/1.1/"
   xmlns:cc="http://creativecommons.org/ns#"
   xmlns:rdf="http://www.w3.org/1999/02/22-rdf-syntax-ns#"
   xmlns:svg="http://www.w3.org/2000/svg"
   xmlns="http://www.w3.org/2000/svg"
   xmlns:sodipodi="http://sodipodi.sourceforge.net/DTD/sodipodi-0.dtd"
   xmlns:inkscape="http://www.inkscape.org/namespaces/inkscape"
   width="1920"
   height="1080"
   viewBox="0 0 1920 1080"
   version="1.1"
   id="svg2"
   inkscape:version="0.91 r13725"
   sodipodi:docname="react-amsterdam-logo.svg">
  <metadata
     id="metadata22">
    <rdf:RDF>
      <cc:Work
         rdf:about="">
        <dc:format>image/svg+xml</dc:format>
        <dc:type
           rdf:resource="http://purl.org/dc/dcmitype/StillImage" />
        <dc:title>REACT AMSTERDAM</dc:title>
      </cc:Work>
    </rdf:RDF>
  </metadata>
  <sodipodi:namedview
     pagecolor="#ffffff"
     bordercolor="#666666"
     borderopacity="1"
     objecttolerance="10"
     gridtolerance="10"
     guidetolerance="10"
     inkscape:pageopacity="0"
     inkscape:pageshadow="2"
     inkscape:window-width="1855"
     inkscape:window-height="1056"
     id="namedview20"
     showgrid="false"
     inkscape:zoom="0.20914246"
     inkscape:cx="2548"
     inkscape:cy="2069.5"
     inkscape:window-x="65"
     inkscape:window-y="24"
     inkscape:window-maximized="1"
     inkscape:current-layer="svg2" />
  <!-- Generator: Sketch 43.2 (39069) - http://www.bohemiancoding.com/sketch -->
  <title
     id="title4">REACT AMSTERDAM</title>
  <desc
     id="desc6">Created with Sketch.</desc>
  <defs
     id="defs8" />
  <g
     id="Page-1"
     style="fill:none;fill-rule:evenodd;stroke:none;stroke-width:1"
     transform="matrix(0.28055653,0,0,0.28055653,263.47833,-25.614638)">
    <g
       id="logo"
       transform="translate(1548,412)"
       style="fill:#00dd3b">
      <path
         d="m 1112.2168,480.29676 c -37.4538,-47.29372 -73.2793,-92.95662 -112.36155,-132.09625 -37.45386,40.77045 -74.90772,84.80253 -110.73315,132.09625 73.27929,-3.26164 148.187,-3.26164 223.0947,0 l 0,0 z M 934.7181,282.9678 C 851.66823,203.05773 657.88521,44.868398 547.15206,108.47029 l 0,0 C 434.79048,173.70301 477.12962,419.9565 503.18448,530.85211 584.60592,512.91312 672.54107,498.23575 766.98994,488.45085 822.35652,413.43323 877.72309,343.30806 934.7181,282.9678 l 0,0 z m 366.3965,913.258 c 60.2518,-8.1541 117.2468,-17.939 170.985,-30.9855 -16.2843,-52.1862 -35.8254,-107.634 -58.6234,-163.0818 -34.197,66.8635 -71.6509,132.0962 -112.3616,194.0673 l 0,0 z m -68.394,101.1107 c -53.7382,76.6484 -110.7332,146.7736 -167.7282,207.1139 26.0549,24.4622 50.4813,45.6629 74.9077,66.8635 128.6459,102.7415 244.2643,146.7736 312.6583,107.634 l 0,0 c 112.3616,-65.2327 70.0225,-311.4862 43.9676,-424.0127 -81.4214,19.5698 -169.3566,34.2472 -263.8054,42.4013 l 0,0 z m -232.86535,273.9774 c -115.61844,110.8956 -338.71318,282.1315 -499.92763,187.544 l 0,0 C 338.71318,1665.9013 374.53861,1388.6623 413.6209,1232.1038 258.92017,1186.4409 0,1080.4377 0,892.89367 0,706.98044 258.92017,599.34646 413.6209,553.68356 374.53861,398.75587 338.71318,121.51684 499.92762,26.929402 l 0,0 C 661.14207,-66.027214 884.23681,103.57784 999.85525,214.47345 1117.1021,105.20866 1338.5684,-66.027214 1499.7829,26.929402 l 0,0 c 161.2144,92.956618 125.389,370.195648 86.3067,526.754158 154.7007,45.6629 413.6209,153.29688 413.6209,339.21011 0,185.91323 -258.9202,293.54723 -413.6209,339.21013 37.4539,156.5585 74.9077,433.7975 -86.3067,526.7541 l 0,0 c -105.8479,61.9711 -258.9202,13.0466 -416.8778,-115.788 -27.6833,-21.2007 -55.3666,-45.6629 -83.04985,-71.756 l 0,0 z M 438.04733,1142.4088 c 24.42643,-79.9101 56.99501,-163.08179 96.0773,-249.51513 C 495.04234,806.46032 462.47376,723.28862 438.04733,643.37854 327.31418,675.9949 92.820439,764.05906 92.820439,892.89367 c 0,130.46543 234.493741,218.52963 345.226891,249.51513 l 0,0 z M 586.23435,783.62888 c 34.197,-66.86353 71.65086,-130.46543 112.36158,-192.43651 -60.25186,8.15409 -117.24687,17.939 -170.98502,30.98554 16.28429,50.55535 35.82544,106.00316 58.62344,161.45097 l 0,0 z M 1561.6632,643.37854 c -24.4265,79.91008 -56.995,163.08178 -96.0773,249.51513 39.0823,86.43334 71.6508,169.60503 96.0773,249.51513 109.1047,-32.6164 345.2269,-120.6805 345.2269,-249.51513 0,-128.83461 -234.4938,-216.89877 -345.2269,-249.51513 l 0,0 z M 934.7181,1504.4504 c -56.99501,-60.3403 -112.36158,-130.4655 -167.72816,-207.1139 -92.82044,-8.1541 -182.38402,-22.8315 -263.80546,-42.4013 -27.68329,110.8956 -68.394,358.78 43.96758,424.0127 l 0,0 c 112.36158,65.2327 304.51617,-94.5875 387.56604,-174.4975 l 0,0 z m 65.13715,-65.2328 c 37.45385,-40.7704 74.90775,-84.8025 112.36155,-132.0962 -74.9077,3.2616 -148.18698,3.2616 -223.0947,0 35.82543,47.2937 73.27929,91.3258 110.73315,132.0962 l 0,0 z m 182.38405,-229.9453 c 68.394,-99.4799 128.6458,-205.483 180.7556,-314.74781 -52.1098,-109.2648 -113.99,-215.26796 -182.3841,-314.74784 -120.5037,-8.15409 -242.63584,-8.15409 -364.768,0 -68.394,99.47988 -128.64587,207.11386 -182.38402,314.74784 52.10972,109.26481 113.99002,215.26791 182.38402,314.74781 123.76059,8.1541 245.8927,8.1541 366.3965,0 l 0,0 z m 231.2369,-425.64342 c 22.798,-55.44781 43.9675,-110.89562 60.2518,-163.08179 -53.7381,-13.04654 -110.7331,-22.83145 -170.985,-30.98554 39.0823,63.6019 76.5362,128.83461 110.7332,194.06733 l 0,0 z m 83.0498,-252.77677 c 27.6833,-110.89561 68.394,-358.77992 -43.9676,-422.38182 l 0,0 c -112.3615,-65.23271 -306.1446,94.58744 -387.566,172.86669 56.995,61.97108 113.99,130.46543 167.7282,207.11387 94.4488,9.7849 184.0124,24.46227 263.8054,42.40126 l 0,0 z M 586.23435,1002.1585 c -22.798,55.4478 -42.33915,110.8956 -58.62344,163.0818 53.73815,11.4157 110.73316,22.8314 170.98502,30.9855 -39.08229,-61.9711 -76.53615,-127.2038 -112.36158,-194.0673 l 0,0 z"
         id="Shape"
         inkscape:connector-curvature="0"
         style="fill-rule:nonzero" />
      <path
         d="m 952.63082,622.17791 47.22443,47.29372 47.22445,-47.29372 37.4539,39.13963 -47.2245,47.29372 47.2245,47.29371 -37.4539,37.50881 -47.22445,-47.29371 -47.22443,47.29371 -39.08229,-37.50881 47.22443,-47.29371 -47.22443,-47.29372 39.08229,-39.13963 z m 131.90278,410.96609 -47.2245,47.2937 47.2245,47.2937 -37.4539,37.5089 -47.22445,-47.2938 -47.22443,47.2938 -37.45386,-39.1397 47.22443,-47.2937 -47.22443,-47.2937 39.08229,-39.13964 47.22445,47.29374 47.2244,-47.29374 35.8255,40.77044 z m 0,-185.91323 -47.2245,47.29372 47.2245,47.29372 -37.4539,37.5088 -47.22445,-47.29371 -47.22443,47.29371 -39.08229,-37.5088 47.22443,-47.29372 -47.22443,-47.29372 39.08229,-39.13963 47.22443,47.29372 47.22445,-47.29372 37.4539,39.13963 z"
         id="path13"
         inkscape:connector-curvature="0" />
    </g>
    <text
       id="REACT-AMSTERDAM"
       font-size="500"
       font-weight="700"
       letter-spacing="43.2142868"
       style="font-weight:700;font-size:500px;font-family:Lato-Black, Lato;letter-spacing:43.2142868;fill:#00dd3b">
      <tspan
         x="1644.4642"
         y="3017"
         id="tspan16">REACT</tspan>
      <tspan
         x="735.66071"
         y="3616"
         id="tspan18">AMSTERDAM</tspan>
    </text>
  </g>
</svg>
