<?xml version="1.0" encoding="UTF-8" standalone="no"?>
<svg
   xmlns:dc="http://purl.org/dc/elements/1.1/"
   xmlns:cc="http://creativecommons.org/ns#"
   xmlns:rdf="http://www.w3.org/1999/02/22-rdf-syntax-ns#"
   xmlns:svg="http://www.w3.org/2000/svg"
   xmlns="http://www.w3.org/2000/svg"
   xmlns:sodipodi="http://sodipodi.sourceforge.net/DTD/sodipodi-0.dtd"
   xmlns:inkscape="http://www.inkscape.org/namespaces/inkscape"
   width="1920"
   height="1080"
   viewBox="0 0 3279.1011 4081.32"
   id="svg2"
   version="1.1"
   inkscape:version="0.91 r13725"
   sodipodi:docname="space.svg">
  <metadata
     id="metadata38">
    <rdf:RDF>
      <cc:Work
         rdf:about="">
        <dc:format>image/svg+xml</dc:format>
        <dc:type
           rdf:resource="http://purl.org/dc/dcmitype/StillImage" />
        <dc:title>SPACE</dc:title>
      </cc:Work>
    </rdf:RDF>
  </metadata>
  <defs
     id="defs36" />
  <sodipodi:namedview
     pagecolor="#ffffff"
     bordercolor="#666666"
     borderopacity="1"
     objecttolerance="10"
     gridtolerance="10"
     guidetolerance="10"
     inkscape:pageopacity="0"
     inkscape:pageshadow="2"
     inkscape:window-width="1855"
     inkscape:window-height="1056"
     id="namedview34"
     showgrid="false"
     inkscape:zoom="0.38645319"
     inkscape:cx="631.36439"
     inkscape:cy="160.65196"
     inkscape:window-x="65"
     inkscape:window-y="24"
     inkscape:window-maximized="1"
     inkscape:current-layer="g6" />
  <title
     id="title4">SPACE</title>
  <g
     transform="matrix(2.81911,0,0,-2.81911,-493.68264,4190.5802)"
     id="g6"
     style="fill:#000000">
    <g
       transform="matrix(6.2953699,0,0,6.2953699,646.8129,750.56756)"
       id="g8"
       style="fill:#000000">
      <path
         d="M 0,0 4.4,9.3 5.1,10.7 17.6,36.8 30,10.7 30.7,9.3 35.1,0 0,0 Z M 42.9,-7 46.2,-7 20,47.9 15.2,47.9 -11,-7 l 2.6,0 5.1,0 41.8,0 4.5,0 z"
         id="path10"
         inkscape:connector-curvature="0"
         style="fill:#000000" />
    </g>
    <g
       clip-path="url(#clipPath3373)"
       transform="matrix(6.2953699,0,0,6.2953699,-849.66494,-70.598045)"
       id="g12"
       style="fill:#000000">
      <g
         transform="translate(168.5479,135.542)"
         id="g14"
         style="fill:#000000">
        <path
           d="m 0,0 c -0.5,-1 -1.2,-1.9 -2.2,-2.7 -1,-0.8 -2.3,-1.4 -3.8,-1.9 -1.6,-0.5 -3.3,-0.7 -5.3,-0.7 l -19.5,0 0,-6.8 c 0,0 19.2,0 19.4,0 2.8,0 5.4,0.4 7.7,1.1 2.3,0.8 4.4,1.8 6.1,3.2 1.7,1.4 3.1,3.1 4,5 0.9,1.9 1.4,4 1.4,6.2 l 0,0.1 c 0,2 -0.3,3.9 -1,5.5 -0.7,1.7 -1.9,3.3 -3.6,4.6 -1.5,1.2 -3.5,2.3 -5.9,3.2 -2.2,0.9 -5,1.6 -8.3,2.3 -2.8,0.6 -5.2,1.2 -7,1.9 -1.7,0.6 -3.1,1.3 -4.1,2 -0.8,0.6 -1.4,1.3 -1.7,2 -0.3,0.8 -0.5,1.7 -0.5,2.8 l 0,0.1 c 0,1 0.2,1.9 0.7,2.9 0.5,1 1.2,1.8 2.2,2.6 1,0.8 2.2,1.5 3.6,2 1.4,0.5 3.1,0.8 4.9,0.8 0.2,0 20.4,0 20.4,0 l 0,6.8 -20.2,0 c -2.6,0 -5,-0.4 -7.2,-1.1 -2.2,-0.7 -4.1,-1.8 -5.8,-3.1 -1.7,-1.3 -3,-3 -4,-4.8 -1,-1.9 -1.5,-3.9 -1.5,-6 l 0,-0.1 c 0,-2.1 0.4,-4 1.1,-5.6 0.8,-1.7 2,-3.2 3.7,-4.5 1.5,-1.2 3.5,-2.2 5.8,-3 2.2,-0.8 4.9,-1.5 8,-2.1 2.9,-0.6 5.3,-1.3 7.3,-1.9 1.8,-0.6 3.1,-1.3 4.1,-2 0.5,-1 1.1,-1.7 1.4,-2.5 C 0.6,5.5 0.8,4.5 0.8,3.5 l 0,-0.1 C 0.8,2.1 0.5,1 0,0"
           id="path16"
           inkscape:connector-curvature="0"
           style="fill:#000000" />
      </g>
      <g
         transform="translate(220.4336,160.6289)"
         id="g18"
         style="fill:#000000">
        <path
           d="m 0,0 c 0,-3.5 -1.2,-6.1 -3.6,-7.9 -2.6,-1.9 -6.5,-2.9 -11.4,-2.9 l -12.8,0 0,21.6 12.9,0 c 4.9,0 8.7,-1 11.3,-3 C -1.2,6 0,3.5 0,0.1 L 0,0 Z m 7.1,0.2 c 0,5.5 -2,9.9 -6,13.1 -3.8,3 -9.1,4.5 -15.8,4.5 l -20.2,0 0,-55 7.1,0 0,19.4 12.8,0 c 6.6,0 11.9,1.5 15.8,4.5 4.2,3.2 6.3,7.7 6.3,13.3 l 0,0.1 z"
           id="path20"
           inkscape:connector-curvature="0"
           style="fill:#000000" />
      </g>
      <g
         transform="translate(372.79,171.4824)"
         id="g22"
         style="fill:#000000">
        <path
           d="m 0,0 0,7 -40.1,0 0,-55 40.5,0 0,7 -33.3,0 0,17.2 29.1,0 0,7 -29.1,0 0,16.9 L 0,0 Z"
           id="path24"
           inkscape:connector-curvature="0"
           style="fill:#000000" />
      </g>
      <g
         transform="translate(305.6904,171.4243)"
         id="g26"
         style="fill:#000000">
        <path
           d="m 0,0 17.2,0 0,7 L 0,7 C -15.2,7 -27.5,-5.3 -27.5,-20.5 -27.5,-35.7 -15.2,-48 0,-48 l 17.2,0 0,7 -17.2,0 c -11.3,0 -20.5,9.2 -20.5,20.5 C -20.5,-9.2 -11.3,0 0,0"
           id="path28"
           inkscape:connector-curvature="0"
           style="fill:#000000" />
      </g>
      <g
         transform="translate(95.4668,221.5547)"
         id="g30"
         style="fill:#000000">
        <path
           d="m 0,0 0,-141.7 127,0 0,7 -120,0 0,127.7 305.3,0 0,-127.7 -125,0 -51.3,-38.1 4.2,-5.6 49.5,36.7 129.7,0 L 319.3,0 0,0 Z"
           id="path32"
           inkscape:connector-curvature="0"
           style="fill:#000000" />
      </g>
    </g>
  </g>
</svg>
